<svg viewBox="-16 -32 880 192" width="880" height="192" xmlns="http://www.w3.org/2000/svg"><style>@keyframes c0{4.34%{fill:var(--c1)}4.36%,to{fill:var(--ce)}}@keyframes c1{91.78%{fill:var(--c4)}91.8%,to{fill:var(--ce)}}@keyframes c2{55.06%{fill:var(--c2)}55.08%,to{fill:var(--ce)}}@keyframes c3{55.55%{fill:var(--c2)}55.57%,to{fill:var(--ce)}}@keyframes c4{54.1%{fill:var(--c2)}54.12%,to{fill:var(--ce)}}@keyframes c5{11.58%{fill:var(--c1)}11.6%,to{fill:var(--ce)}}@keyframes c6{89.36%{fill:var(--c4)}89.38%,to{fill:var(--ce)}}@keyframes c7{49.75%{fill:var(--c2)}49.77%,to{fill:var(--ce)}}@keyframes c8{16.42%{fill:var(--c1)}16.44%,to{fill:var(--ce)}}@keyframes c9{71.97%{fill:var(--c4)}71.99%,to{fill:var(--ce)}}@keyframes ca{74.39%{fill:var(--c4)}74.41%,to{fill:var(--ce)}}@keyframes cb{30.91%{fill:var(--c2)}30.93%,to{fill:var(--ce)}}@keyframes cc{30.42%{fill:var(--c2)}30.44%,to{fill:var(--ce)}}@keyframes cd{74.87%{fill:var(--c4)}74.89%,to{fill:var(--ce)}}@keyframes ce{32.36%{fill:var(--c2)}32.38%,to{fill:var(--ce)}}@keyframes cf{28.49%{fill:var(--c1)}28.51%,to{fill:var(--ce)}}@keyframes cg{28.98%{fill:var(--c2)}29%,to{fill:var(--ce)}}@keyframes ch{29.46%{fill:var(--c2)}29.48%,to{fill:var(--ce)}}@keyframes ci{70.52%{fill:var(--c3)}70.54%,to{fill:var(--ce)}}@keyframes cj{35.74%{fill:var(--c2)}35.76%,to{fill:var(--ce)}}@keyframes u0{4.34%{transform:scale(0,1)}11.58%,4.36%{transform:scale(.25,1)}11.6%,16.42%{transform:scale(.5,1)}16.44%,28.49%{transform:scale(.75,1)}28.51%,to{transform:scale(1,1)}}@keyframes u1{28.98%{transform:scale(0,1)}29%,29.46%{transform:scale(.1,1)}29.48%,30.42%{transform:scale(.2,1)}30.44%,30.91%{transform:scale(.3,1)}30.93%,32.36%{transform:scale(.4,1)}32.38%,35.74%{transform:scale(.5,1)}35.76%,49.75%{transform:scale(.6,1)}49.77%,54.1%{transform:scale(.7,1)}54.12%,55.06%{transform:scale(.8,1)}55.08%,55.55%{transform:scale(.9,1)}55.57%,to{transform:scale(1,1)}}@keyframes u2{70.52%{transform:scale(0,1)}70.54%,to{transform:scale(1,1)}}@keyframes u3{71.97%{transform:scale(0,1)}71.99%,74.39%{transform:scale(.2,1)}74.41%,74.87%{transform:scale(.4,1)}74.89%,89.36%{transform:scale(.6,1)}89.38%,91.78%{transform:scale(.8,1)}91.8%,to{transform:scale(1,1)}}@keyframes s0{0%,99.52%{transform:translate(0,-16px)}.48%{transform:translate(0,0)}2.42%{transform:translate(64px,0)}4.35%{transform:translate(64px,64px)}9.66%{transform:translate(240px,64px)}11.59%{transform:translate(240px,0)}13.53%{transform:translate(304px,0)}14.98%{transform:translate(304px,48px)}15.46%{transform:translate(320px,48px)}16.43%{transform:translate(320px,80px)}25.12%{transform:translate(608px,80px)}25.6%{transform:translate(608px,64px)}26.09%,72.46%{transform:translate(624px,64px)}27.05%{transform:translate(624px,32px)}28.5%{transform:translate(672px,32px)}29.47%{transform:translate(672px,64px)}30.43%,72.95%{transform:translate(640px,64px)}30.92%{transform:translate(640px,48px)}31.4%{transform:translate(656px,48px)}32.85%{transform:translate(656px,96px)}35.27%{transform:translate(736px,96px)}37.2%{transform:translate(736px,32px)}52.66%{transform:translate(224px,32px)}54.11%{transform:translate(224px,80px)}55.07%{transform:translate(192px,80px)}55.56%{transform:translate(192px,96px)}70.05%{transform:translate(672px,96px)}70.53%{transform:translate(672px,80px)}71.98%{transform:translate(624px,80px)}74.4%{transform:translate(640px,16px)}74.88%{transform:translate(656px,16px)}75.36%{transform:translate(656px,32px)}87.92%{transform:translate(240px,32px)}89.37%{transform:translate(240px,80px)}91.79%{transform:translate(160px,80px)}92.27%{transform:translate(160px,64px)}93.72%{transform:translate(112px,64px)}94.2%{transform:translate(112px,48px)}94.69%{transform:translate(96px,48px)}95.65%{transform:translate(96px,16px)}96.62%{transform:translate(64px,16px)}97.58%{transform:translate(64px,-16px)}}@keyframes s1{0%,99.52%{transform:translate(16px,-16px)}.48%{transform:translate(0,-16px)}.97%{transform:translate(0,0)}2.9%{transform:translate(64px,0)}4.83%{transform:translate(64px,64px)}10.14%{transform:translate(240px,64px)}12.08%{transform:translate(240px,0)}14.01%{transform:translate(304px,0)}15.46%{transform:translate(304px,48px)}15.94%{transform:translate(320px,48px)}16.91%{transform:translate(320px,80px)}25.6%{transform:translate(608px,80px)}26.09%{transform:translate(608px,64px)}26.57%,72.95%{transform:translate(624px,64px)}27.54%{transform:translate(624px,32px)}28.99%{transform:translate(672px,32px)}29.95%{transform:translate(672px,64px)}30.92%,73.43%{transform:translate(640px,64px)}31.4%{transform:translate(640px,48px)}31.88%{transform:translate(656px,48px)}33.33%{transform:translate(656px,96px)}35.75%{transform:translate(736px,96px)}37.68%{transform:translate(736px,32px)}53.14%{transform:translate(224px,32px)}54.59%{transform:translate(224px,80px)}55.56%{transform:translate(192px,80px)}56.04%{transform:translate(192px,96px)}70.53%{transform:translate(672px,96px)}71.01%{transform:translate(672px,80px)}72.46%{transform:translate(624px,80px)}74.88%{transform:translate(640px,16px)}75.36%{transform:translate(656px,16px)}75.85%{transform:translate(656px,32px)}88.41%{transform:translate(240px,32px)}89.86%{transform:translate(240px,80px)}92.27%{transform:translate(160px,80px)}92.75%{transform:translate(160px,64px)}94.2%{transform:translate(112px,64px)}94.69%{transform:translate(112px,48px)}95.17%{transform:translate(96px,48px)}96.14%{transform:translate(96px,16px)}97.1%{transform:translate(64px,16px)}98.07%{transform:translate(64px,-16px)}}@keyframes s2{0%,99.52%{transform:translate(32px,-16px)}.97%{transform:translate(0,-16px)}1.45%{transform:translate(0,0)}3.38%{transform:translate(64px,0)}5.31%{transform:translate(64px,64px)}10.63%{transform:translate(240px,64px)}12.56%{transform:translate(240px,0)}14.49%{transform:translate(304px,0)}15.94%{transform:translate(304px,48px)}16.43%{transform:translate(320px,48px)}17.39%{transform:translate(320px,80px)}26.09%{transform:translate(608px,80px)}26.57%{transform:translate(608px,64px)}27.05%,73.43%{transform:translate(624px,64px)}28.02%{transform:translate(624px,32px)}29.47%{transform:translate(672px,32px)}30.43%{transform:translate(672px,64px)}31.4%,73.91%{transform:translate(640px,64px)}31.88%{transform:translate(640px,48px)}32.37%{transform:translate(656px,48px)}33.82%{transform:translate(656px,96px)}36.23%{transform:translate(736px,96px)}38.16%{transform:translate(736px,32px)}53.62%{transform:translate(224px,32px)}55.07%{transform:translate(224px,80px)}56.04%{transform:translate(192px,80px)}56.52%{transform:translate(192px,96px)}71.01%{transform:translate(672px,96px)}71.5%{transform:translate(672px,80px)}72.95%{transform:translate(624px,80px)}75.36%{transform:translate(640px,16px)}75.85%{transform:translate(656px,16px)}76.33%{transform:translate(656px,32px)}88.89%{transform:translate(240px,32px)}90.34%{transform:translate(240px,80px)}92.75%{transform:translate(160px,80px)}93.24%{transform:translate(160px,64px)}94.69%{transform:translate(112px,64px)}95.17%{transform:translate(112px,48px)}95.65%{transform:translate(96px,48px)}96.62%{transform:translate(96px,16px)}97.58%{transform:translate(64px,16px)}98.55%{transform:translate(64px,-16px)}}@keyframes s3{0%,99.52%{transform:translate(48px,-16px)}1.45%{transform:translate(0,-16px)}1.93%{transform:translate(0,0)}3.86%{transform:translate(64px,0)}5.8%{transform:translate(64px,64px)}11.11%{transform:translate(240px,64px)}13.04%{transform:translate(240px,0)}14.98%{transform:translate(304px,0)}16.43%{transform:translate(304px,48px)}16.91%{transform:translate(320px,48px)}17.87%{transform:translate(320px,80px)}26.57%{transform:translate(608px,80px)}27.05%{transform:translate(608px,64px)}27.54%,73.91%{transform:translate(624px,64px)}28.5%{transform:translate(624px,32px)}29.95%{transform:translate(672px,32px)}30.92%{transform:translate(672px,64px)}31.88%,74.4%{transform:translate(640px,64px)}32.37%{transform:translate(640px,48px)}32.85%{transform:translate(656px,48px)}34.3%{transform:translate(656px,96px)}36.71%{transform:translate(736px,96px)}38.65%{transform:translate(736px,32px)}54.11%{transform:translate(224px,32px)}55.56%{transform:translate(224px,80px)}56.52%{transform:translate(192px,80px)}57%{transform:translate(192px,96px)}71.5%{transform:translate(672px,96px)}71.98%{transform:translate(672px,80px)}73.43%{transform:translate(624px,80px)}75.85%{transform:translate(640px,16px)}76.33%{transform:translate(656px,16px)}76.81%{transform:translate(656px,32px)}89.37%{transform:translate(240px,32px)}90.82%{transform:translate(240px,80px)}93.24%{transform:translate(160px,80px)}93.72%{transform:translate(160px,64px)}95.17%{transform:translate(112px,64px)}95.65%{transform:translate(112px,48px)}96.14%{transform:translate(96px,48px)}97.1%{transform:translate(96px,16px)}98.07%{transform:translate(64px,16px)}99.03%{transform:translate(64px,-16px)}}:root{--cb:#1b1f230a;--cs:purple;--ce:#ebedf0;--c0:#ebedf0;--c1:#9be9a8;--c2:#40c463;--c3:#30a14e;--c4:#216e39}@media (prefers-color-scheme:dark){:root{--cb:#1b1f230a;--cs:purple;--ce:#161b22;--c1:#01311f;--c2:#034525;--c3:#0f6d31;--c4:#00c647}}.c{shape-rendering:geometricPrecision;rx:2;ry:2;fill:var(--ce);stroke-width:1px;stroke:var(--cb);animation:none 20700ms linear infinite}.c.c0{fill:var(--c1);animation-name:c0}.c.c1{fill:var(--c4);animation-name:c1}.c.c2,.c.c3,.c.c4{fill:var(--c2);animation-name:c2}.c.c3,.c.c4{animation-name:c3}.c.c4{animation-name:c4}.c.c5{fill:var(--c1);animation-name:c5}.c.c6{fill:var(--c4);animation-name:c6}.c.c7{fill:var(--c2);animation-name:c7}.c.c8{fill:var(--c1);animation-name:c8}.c.c9,.c.ca{fill:var(--c4);animation-name:c9}.c.ca{animation-name:ca}.c.cb,.c.cc{fill:var(--c2);animation-name:cb}.c.cc{animation-name:cc}.c.cd{fill:var(--c4);animation-name:cd}.c.ce{fill:var(--c2);animation-name:ce}.c.cf{fill:var(--c1);animation-name:cf}.c.cg,.c.ch{fill:var(--c2);animation-name:cg}.c.ch{animation-name:ch}.c.ci{fill:var(--c3);animation-name:ci}.c.cj{fill:var(--c2);animation-name:cj}.s,.u{animation:none linear 20700ms infinite}.u,.u.u0{transform-origin:0 0}.u{transform:scale(0,1)}.u.u0{fill:var(--c1);animation-name:u0}.u.u1{fill:var(--c2);animation-name:u1;transform-origin:169.6px 0}.u.u2{fill:var(--c3);animation-name:u2;transform-origin:593.6px 0}.u.u3{fill:var(--c4);animation-name:u3;transform-origin:636px 0}.s{shape-rendering:geometricPrecision;fill:var(--cs)}.s.s0{transform:translate(0,-16px);animation-name:s0}.s.s1{transform:translate(16px,-16px);animation-name:s1}.s.s2{transform:translate(32px,-16px);animation-name:s2}.s.s3{transform:translate(48px,-16px);animation-name:s3}</style><rect class="c" x="2" y="2" width="12" height="12"/><rect class="c" x="2" y="18" width="12" height="12"/><rect class="c" x="2" y="34" width="12" height="12"/><rect class="c" x="2" y="50" width="12" height="12"/><rect class="c" x="2" y="66" width="12" height="12"/><rect class="c" x="2" y="82" width="12" height="12"/><rect class="c" x="2" y="98" width="12" height="12"/><rect class="c" x="18" y="2" width="12" height="12"/><rect class="c" x="18" y="18" width="12" height="12"/><rect class="c" x="18" y="34" width="12" height="12"/><rect class="c" x="18" y="50" width="12" height="12"/><rect class="c" x="18" y="66" width="12" height="12"/><rect class="c" x="18" y="82" width="12" height="12"/><rect class="c" x="18" y="98" width="12" height="12"/><rect class="c" x="34" y="2" width="12" height="12"/><rect class="c" x="34" y="18" width="12" height="12"/><rect class="c" x="34" y="34" width="12" height="12"/><rect class="c" x="34" y="50" width="12" height="12"/><rect class="c" x="34" y="66" width="12" height="12"/><rect class="c" x="34" y="82" width="12" height="12"/><rect class="c" x="34" y="98" width="12" height="12"/><rect class="c" x="50" y="2" width="12" height="12"/><rect class="c" x="50" y="18" width="12" height="12"/><rect class="c" x="50" y="34" width="12" height="12"/><rect class="c" x="50" y="50" width="12" height="12"/><rect class="c" x="50" y="66" width="12" height="12"/><rect class="c" x="50" y="82" width="12" height="12"/><rect class="c" x="50" y="98" width="12" height="12"/><rect class="c" x="66" y="2" width="12" height="12"/><rect class="c" x="66" y="18" width="12" height="12"/><rect class="c" x="66" y="34" width="12" height="12"/><rect class="c" x="66" y="50" width="12" height="12"/><rect class="c c0" x="66" y="66" width="12" height="12"/><rect class="c" x="66" y="82" width="12" height="12"/><rect class="c" x="66" y="98" width="12" height="12"/><rect class="c" x="82" y="2" width="12" height="12"/><rect class="c" x="82" y="18" width="12" height="12"/><rect class="c" x="82" y="34" width="12" height="12"/><rect class="c" x="82" y="50" width="12" height="12"/><rect class="c" x="82" y="66" width="12" height="12"/><rect class="c" x="82" y="82" width="12" height="12"/><rect class="c" x="82" y="98" width="12" height="12"/><rect class="c" x="98" y="2" width="12" height="12"/><rect class="c" x="98" y="18" width="12" height="12"/><rect class="c" x="98" y="34" width="12" height="12"/><rect class="c" x="98" y="50" width="12" height="12"/><rect class="c" x="98" y="66" width="12" height="12"/><rect class="c" x="98" y="82" width="12" height="12"/><rect class="c" x="98" y="98" width="12" height="12"/><rect class="c" x="114" y="2" width="12" height="12"/><rect class="c" x="114" y="18" width="12" height="12"/><rect class="c" x="114" y="34" width="12" height="12"/><rect class="c" x="114" y="50" width="12" height="12"/><rect class="c" x="114" y="66" width="12" height="12"/><rect class="c" x="114" y="82" width="12" height="12"/><rect class="c" x="114" y="98" width="12" height="12"/><rect class="c" x="130" y="2" width="12" height="12"/><rect class="c" x="130" y="18" width="12" height="12"/><rect class="c" x="130" y="34" width="12" height="12"/><rect class="c" x="130" y="50" width="12" height="12"/><rect class="c" x="130" y="66" width="12" height="12"/><rect class="c" x="130" y="82" width="12" height="12"/><rect class="c" x="130" y="98" width="12" height="12"/><rect class="c" x="146" y="2" width="12" height="12"/><rect class="c" x="146" y="18" width="12" height="12"/><rect class="c" x="146" y="34" width="12" height="12"/><rect class="c" x="146" y="50" width="12" height="12"/><rect class="c" x="146" y="66" width="12" height="12"/><rect class="c" x="146" y="82" width="12" height="12"/><rect class="c" x="146" y="98" width="12" height="12"/><rect class="c" x="162" y="2" width="12" height="12"/><rect class="c" x="162" y="18" width="12" height="12"/><rect class="c" x="162" y="34" width="12" height="12"/><rect class="c" x="162" y="50" width="12" height="12"/><rect class="c" x="162" y="66" width="12" height="12"/><rect class="c c1" x="162" y="82" width="12" height="12"/><rect class="c" x="162" y="98" width="12" height="12"/><rect class="c" x="178" y="2" width="12" height="12"/><rect class="c" x="178" y="18" width="12" height="12"/><rect class="c" x="178" y="34" width="12" height="12"/><rect class="c" x="178" y="50" width="12" height="12"/><rect class="c" x="178" y="66" width="12" height="12"/><rect class="c" x="178" y="82" width="12" height="12"/><rect class="c" x="178" y="98" width="12" height="12"/><rect class="c" x="194" y="2" width="12" height="12"/><rect class="c" x="194" y="18" width="12" height="12"/><rect class="c" x="194" y="34" width="12" height="12"/><rect class="c" x="194" y="50" width="12" height="12"/><rect class="c" x="194" y="66" width="12" height="12"/><rect class="c c2" x="194" y="82" width="12" height="12"/><rect class="c c3" x="194" y="98" width="12" height="12"/><rect class="c" x="210" y="2" width="12" height="12"/><rect class="c" x="210" y="18" width="12" height="12"/><rect class="c" x="210" y="34" width="12" height="12"/><rect class="c" x="210" y="50" width="12" height="12"/><rect class="c" x="210" y="66" width="12" height="12"/><rect class="c" x="210" y="82" width="12" height="12"/><rect class="c" x="210" y="98" width="12" height="12"/><rect class="c" x="226" y="2" width="12" height="12"/><rect class="c" x="226" y="18" width="12" height="12"/><rect class="c" x="226" y="34" width="12" height="12"/><rect class="c" x="226" y="50" width="12" height="12"/><rect class="c" x="226" y="66" width="12" height="12"/><rect class="c c4" x="226" y="82" width="12" height="12"/><rect class="c" x="226" y="98" width="12" height="12"/><rect class="c c5" x="242" y="2" width="12" height="12"/><rect class="c" x="242" y="18" width="12" height="12"/><rect class="c" x="242" y="34" width="12" height="12"/><rect class="c" x="242" y="50" width="12" height="12"/><rect class="c" x="242" y="66" width="12" height="12"/><rect class="c c6" x="242" y="82" width="12" height="12"/><rect class="c" x="242" y="98" width="12" height="12"/><rect class="c" x="258" y="2" width="12" height="12"/><rect class="c" x="258" y="18" width="12" height="12"/><rect class="c" x="258" y="34" width="12" height="12"/><rect class="c" x="258" y="50" width="12" height="12"/><rect class="c" x="258" y="66" width="12" height="12"/><rect class="c" x="258" y="82" width="12" height="12"/><rect class="c" x="258" y="98" width="12" height="12"/><rect class="c" x="274" y="2" width="12" height="12"/><rect class="c" x="274" y="18" width="12" height="12"/><rect class="c" x="274" y="34" width="12" height="12"/><rect class="c" x="274" y="50" width="12" height="12"/><rect class="c" x="274" y="66" width="12" height="12"/><rect class="c" x="274" y="82" width="12" height="12"/><rect class="c" x="274" y="98" width="12" height="12"/><rect class="c" x="290" y="2" width="12" height="12"/><rect class="c" x="290" y="18" width="12" height="12"/><rect class="c" x="290" y="34" width="12" height="12"/><rect class="c" x="290" y="50" width="12" height="12"/><rect class="c" x="290" y="66" width="12" height="12"/><rect class="c" x="290" y="82" width="12" height="12"/><rect class="c" x="290" y="98" width="12" height="12"/><rect class="c" x="306" y="2" width="12" height="12"/><rect class="c" x="306" y="18" width="12" height="12"/><rect class="c" x="306" y="34" width="12" height="12"/><rect class="c" x="306" y="50" width="12" height="12"/><rect class="c" x="306" y="66" width="12" height="12"/><rect class="c" x="306" y="82" width="12" height="12"/><rect class="c" x="306" y="98" width="12" height="12"/><rect class="c" x="322" y="2" width="12" height="12"/><rect class="c" x="322" y="18" width="12" height="12"/><rect class="c c7" x="322" y="34" width="12" height="12"/><rect class="c" x="322" y="50" width="12" height="12"/><rect class="c" x="322" y="66" width="12" height="12"/><rect class="c c8" x="322" y="82" width="12" height="12"/><rect class="c" x="322" y="98" width="12" height="12"/><rect class="c" x="338" y="2" width="12" height="12"/><rect class="c" x="338" y="18" width="12" height="12"/><rect class="c" x="338" y="34" width="12" height="12"/><rect class="c" x="338" y="50" width="12" height="12"/><rect class="c" x="338" y="66" width="12" height="12"/><rect class="c" x="338" y="82" width="12" height="12"/><rect class="c" x="338" y="98" width="12" height="12"/><rect class="c" x="354" y="2" width="12" height="12"/><rect class="c" x="354" y="18" width="12" height="12"/><rect class="c" x="354" y="34" width="12" height="12"/><rect class="c" x="354" y="50" width="12" height="12"/><rect class="c" x="354" y="66" width="12" height="12"/><rect class="c" x="354" y="82" width="12" height="12"/><rect class="c" x="354" y="98" width="12" height="12"/><rect class="c" x="370" y="2" width="12" height="12"/><rect class="c" x="370" y="18" width="12" height="12"/><rect class="c" x="370" y="34" width="12" height="12"/><rect class="c" x="370" y="50" width="12" height="12"/><rect class="c" x="370" y="66" width="12" height="12"/><rect class="c" x="370" y="82" width="12" height="12"/><rect class="c" x="370" y="98" width="12" height="12"/><rect class="c" x="386" y="2" width="12" height="12"/><rect class="c" x="386" y="18" width="12" height="12"/><rect class="c" x="386" y="34" width="12" height="12"/><rect class="c" x="386" y="50" width="12" height="12"/><rect class="c" x="386" y="66" width="12" height="12"/><rect class="c" x="386" y="82" width="12" height="12"/><rect class="c" x="386" y="98" width="12" height="12"/><rect class="c" x="402" y="2" width="12" height="12"/><rect class="c" x="402" y="18" width="12" height="12"/><rect class="c" x="402" y="34" width="12" height="12"/><rect class="c" x="402" y="50" width="12" height="12"/><rect class="c" x="402" y="66" width="12" height="12"/><rect class="c" x="402" y="82" width="12" height="12"/><rect class="c" x="402" y="98" width="12" height="12"/><rect class="c" x="418" y="2" width="12" height="12"/><rect class="c" x="418" y="18" width="12" height="12"/><rect class="c" x="418" y="34" width="12" height="12"/><rect class="c" x="418" y="50" width="12" height="12"/><rect class="c" x="418" y="66" width="12" height="12"/><rect class="c" x="418" y="82" width="12" height="12"/><rect class="c" x="418" y="98" width="12" height="12"/><rect class="c" x="434" y="2" width="12" height="12"/><rect class="c" x="434" y="18" width="12" height="12"/><rect class="c" x="434" y="34" width="12" height="12"/><rect class="c" x="434" y="50" width="12" height="12"/><rect class="c" x="434" y="66" width="12" height="12"/><rect class="c" x="434" y="82" width="12" height="12"/><rect class="c" x="434" y="98" width="12" height="12"/><rect class="c" x="450" y="2" width="12" height="12"/><rect class="c" x="450" y="18" width="12" height="12"/><rect class="c" x="450" y="34" width="12" height="12"/><rect class="c" x="450" y="50" width="12" height="12"/><rect class="c" x="450" y="66" width="12" height="12"/><rect class="c" x="450" y="82" width="12" height="12"/><rect class="c" x="450" y="98" width="12" height="12"/><rect class="c" x="466" y="2" width="12" height="12"/><rect class="c" x="466" y="18" width="12" height="12"/><rect class="c" x="466" y="34" width="12" height="12"/><rect class="c" x="466" y="50" width="12" height="12"/><rect class="c" x="466" y="66" width="12" height="12"/><rect class="c" x="466" y="82" width="12" height="12"/><rect class="c" x="466" y="98" width="12" height="12"/><rect class="c" x="482" y="2" width="12" height="12"/><rect class="c" x="482" y="18" width="12" height="12"/><rect class="c" x="482" y="34" width="12" height="12"/><rect class="c" x="482" y="50" width="12" height="12"/><rect class="c" x="482" y="66" width="12" height="12"/><rect class="c" x="482" y="82" width="12" height="12"/><rect class="c" x="482" y="98" width="12" height="12"/><rect class="c" x="498" y="2" width="12" height="12"/><rect class="c" x="498" y="18" width="12" height="12"/><rect class="c" x="498" y="34" width="12" height="12"/><rect class="c" x="498" y="50" width="12" height="12"/><rect class="c" x="498" y="66" width="12" height="12"/><rect class="c" x="498" y="82" width="12" height="12"/><rect class="c" x="498" y="98" width="12" height="12"/><rect class="c" x="514" y="2" width="12" height="12"/><rect class="c" x="514" y="18" width="12" height="12"/><rect class="c" x="514" y="34" width="12" height="12"/><rect class="c" x="514" y="50" width="12" height="12"/><rect class="c" x="514" y="66" width="12" height="12"/><rect class="c" x="514" y="82" width="12" height="12"/><rect class="c" x="514" y="98" width="12" height="12"/><rect class="c" x="530" y="2" width="12" height="12"/><rect class="c" x="530" y="18" width="12" height="12"/><rect class="c" x="530" y="34" width="12" height="12"/><rect class="c" x="530" y="50" width="12" height="12"/><rect class="c" x="530" y="66" width="12" height="12"/><rect class="c" x="530" y="82" width="12" height="12"/><rect class="c" x="530" y="98" width="12" height="12"/><rect class="c" x="546" y="2" width="12" height="12"/><rect class="c" x="546" y="18" width="12" height="12"/><rect class="c" x="546" y="34" width="12" height="12"/><rect class="c" x="546" y="50" width="12" height="12"/><rect class="c" x="546" y="66" width="12" height="12"/><rect class="c" x="546" y="82" width="12" height="12"/><rect class="c" x="546" y="98" width="12" height="12"/><rect class="c" x="562" y="2" width="12" height="12"/><rect class="c" x="562" y="18" width="12" height="12"/><rect class="c" x="562" y="34" width="12" height="12"/><rect class="c" x="562" y="50" width="12" height="12"/><rect class="c" x="562" y="66" width="12" height="12"/><rect class="c" x="562" y="82" width="12" height="12"/><rect class="c" x="562" y="98" width="12" height="12"/><rect class="c" x="578" y="2" width="12" height="12"/><rect class="c" x="578" y="18" width="12" height="12"/><rect class="c" x="578" y="34" width="12" height="12"/><rect class="c" x="578" y="50" width="12" height="12"/><rect class="c" x="578" y="66" width="12" height="12"/><rect class="c" x="578" y="82" width="12" height="12"/><rect class="c" x="578" y="98" width="12" height="12"/><rect class="c" x="594" y="2" width="12" height="12"/><rect class="c" x="594" y="18" width="12" height="12"/><rect class="c" x="594" y="34" width="12" height="12"/><rect class="c" x="594" y="50" width="12" height="12"/><rect class="c" x="594" y="66" width="12" height="12"/><rect class="c" x="594" y="82" width="12" height="12"/><rect class="c" x="594" y="98" width="12" height="12"/><rect class="c" x="610" y="2" width="12" height="12"/><rect class="c" x="610" y="18" width="12" height="12"/><rect class="c" x="610" y="34" width="12" height="12"/><rect class="c" x="610" y="50" width="12" height="12"/><rect class="c" x="610" y="66" width="12" height="12"/><rect class="c" x="610" y="82" width="12" height="12"/><rect class="c" x="610" y="98" width="12" height="12"/><rect class="c" x="626" y="2" width="12" height="12"/><rect class="c" x="626" y="18" width="12" height="12"/><rect class="c" x="626" y="34" width="12" height="12"/><rect class="c" x="626" y="50" width="12" height="12"/><rect class="c" x="626" y="66" width="12" height="12"/><rect class="c c9" x="626" y="82" width="12" height="12"/><rect class="c" x="626" y="98" width="12" height="12"/><rect class="c" x="642" y="2" width="12" height="12"/><rect class="c ca" x="642" y="18" width="12" height="12"/><rect class="c" x="642" y="34" width="12" height="12"/><rect class="c cb" x="642" y="50" width="12" height="12"/><rect class="c cc" x="642" y="66" width="12" height="12"/><rect class="c" x="642" y="82" width="12" height="12"/><rect class="c" x="642" y="98" width="12" height="12"/><rect class="c" x="658" y="2" width="12" height="12"/><rect class="c cd" x="658" y="18" width="12" height="12"/><rect class="c" x="658" y="34" width="12" height="12"/><rect class="c" x="658" y="50" width="12" height="12"/><rect class="c" x="658" y="66" width="12" height="12"/><rect class="c ce" x="658" y="82" width="12" height="12"/><rect class="c" x="658" y="98" width="12" height="12"/><rect class="c" x="674" y="2" width="12" height="12"/><rect class="c" x="674" y="18" width="12" height="12"/><rect class="c cf" x="674" y="34" width="12" height="12"/><rect class="c cg" x="674" y="50" width="12" height="12"/><rect class="c ch" x="674" y="66" width="12" height="12"/><rect class="c ci" x="674" y="82" width="12" height="12"/><rect class="c" x="674" y="98" width="12" height="12"/><rect class="c" x="690" y="2" width="12" height="12"/><rect class="c" x="690" y="18" width="12" height="12"/><rect class="c" x="690" y="34" width="12" height="12"/><rect class="c" x="690" y="50" width="12" height="12"/><rect class="c" x="690" y="66" width="12" height="12"/><rect class="c" x="690" y="82" width="12" height="12"/><rect class="c" x="690" y="98" width="12" height="12"/><rect class="c" x="706" y="2" width="12" height="12"/><rect class="c" x="706" y="18" width="12" height="12"/><rect class="c" x="706" y="34" width="12" height="12"/><rect class="c" x="706" y="50" width="12" height="12"/><rect class="c" x="706" y="66" width="12" height="12"/><rect class="c" x="706" y="82" width="12" height="12"/><rect class="c" x="706" y="98" width="12" height="12"/><rect class="c" x="722" y="2" width="12" height="12"/><rect class="c" x="722" y="18" width="12" height="12"/><rect class="c" x="722" y="34" width="12" height="12"/><rect class="c" x="722" y="50" width="12" height="12"/><rect class="c" x="722" y="66" width="12" height="12"/><rect class="c" x="722" y="82" width="12" height="12"/><rect class="c" x="722" y="98" width="12" height="12"/><rect class="c" x="738" y="2" width="12" height="12"/><rect class="c" x="738" y="18" width="12" height="12"/><rect class="c" x="738" y="34" width="12" height="12"/><rect class="c" x="738" y="50" width="12" height="12"/><rect class="c" x="738" y="66" width="12" height="12"/><rect class="c cj" x="738" y="82" width="12" height="12"/><rect class="c" x="738" y="98" width="12" height="12"/><rect class="c" x="754" y="2" width="12" height="12"/><rect class="c" x="754" y="18" width="12" height="12"/><rect class="c" x="754" y="34" width="12" height="12"/><rect class="c" x="754" y="50" width="12" height="12"/><rect class="c" x="754" y="66" width="12" height="12"/><rect class="c" x="754" y="82" width="12" height="12"/><rect class="c" x="754" y="98" width="12" height="12"/><rect class="c" x="770" y="2" width="12" height="12"/><rect class="c" x="770" y="18" width="12" height="12"/><rect class="c" x="770" y="34" width="12" height="12"/><rect class="c" x="770" y="50" width="12" height="12"/><rect class="c" x="770" y="66" width="12" height="12"/><rect class="c" x="770" y="82" width="12" height="12"/><rect class="c" x="770" y="98" width="12" height="12"/><rect class="c" x="786" y="2" width="12" height="12"/><rect class="c" x="786" y="18" width="12" height="12"/><rect class="c" x="786" y="34" width="12" height="12"/><rect class="c" x="786" y="50" width="12" height="12"/><rect class="c" x="786" y="66" width="12" height="12"/><rect class="c" x="786" y="82" width="12" height="12"/><rect class="c" x="786" y="98" width="12" height="12"/><rect class="c" x="802" y="2" width="12" height="12"/><rect class="c" x="802" y="18" width="12" height="12"/><rect class="c" x="802" y="34" width="12" height="12"/><rect class="c" x="802" y="50" width="12" height="12"/><rect class="c" x="802" y="66" width="12" height="12"/><rect class="c" x="802" y="82" width="12" height="12"/><rect class="c" x="802" y="98" width="12" height="12"/><rect class="c" x="818" y="2" width="12" height="12"/><rect class="c" x="818" y="18" width="12" height="12"/><rect class="c" x="818" y="34" width="12" height="12"/><rect class="c" x="818" y="50" width="12" height="12"/><rect class="c" x="818" y="66" width="12" height="12"/><rect class="c" x="818" y="82" width="12" height="12"/><rect class="c" x="818" y="98" width="12" height="12"/><rect class="c" x="834" y="2" width="12" height="12"/><rect class="c" x="834" y="18" width="12" height="12"/><rect class="c" x="834" y="34" width="12" height="12"/><rect class="u u0" height="12" width="170.2" x="0.0" y="144"/><rect class="u u1" height="12" width="424.6" x="169.6" y="144"/><rect class="u u2" height="12" width="43.0" x="593.6" y="144"/><rect class="u u3" height="12" width="212.6" x="636.0" y="144"/><rect class="s s0" x="0.8" y="0.8" width="14.4" height="14.4" rx="4.5" ry="4.5"/><rect class="s s1" x="1.8" y="1.8" width="12.3" height="12.3" rx="4.1" ry="4.1"/><rect class="s s2" x="2.6" y="2.6" width="10.8" height="10.8" rx="3.6" ry="3.6"/><rect class="s s3" x="3.0" y="3.0" width="9.9" height="9.9" rx="3.3" ry="3.3"/></svg>